<svg width="20" height="16" viewBox="0 0 20 16" fill="none" xmlns="http://www.w3.org/2000/svg">
<path d="M20 -0.00100708C19.22 0.461993 17.655 1.09299 16.735 1.27499C16.708 1.28199 16.686 1.29099 16.66 1.29799C15.847 0.495993 14.733 -0.00100708 13.5 -0.00100708C11.015 -0.00100708 9 2.01399 9 4.49899C9 4.62999 8.989 4.87099 9 4.99899C5.647 4.99899 3.095 3.24299 1.265 0.998993C1.066 1.49899 0.979 2.28899 0.979 3.03099C0.979 4.43199 2.074 5.80799 3.779 6.66099C3.465 6.74199 3.119 6.79999 2.759 6.79999C2.178 6.79999 1.563 6.64699 1 6.18299C1 6.19999 1 6.21599 1 6.23399C1 8.19199 3.078 9.52499 4.926 9.89599C4.551 10.117 3.795 10.139 3.426 10.139C3.166 10.139 2.246 10.02 2 9.97399C2.514 11.579 4.368 12.481 6.135 12.513C4.753 13.597 3.794 13.999 0.964 13.999H0C1.788 15.145 4.065 16 6.347 16C13.777 16 18 10.337 18 4.99899C18 4.91299 17.998 4.73299 17.995 4.55199C17.995 4.53399 18 4.51699 18 4.49899C18 4.47199 17.992 4.44599 17.992 4.41899C17.989 4.28299 17.986 4.15599 17.983 4.08999C18.773 3.51999 19.458 2.80899 20 1.99899C19.275 2.32099 18.497 2.53699 17.68 2.63499C18.514 2.13499 19.699 0.942993 20 -0.00100708Z" fill="#310A90"/>
</svg>
